<?xml version="1.0" encoding="UTF-8" standalone="no"?>
<!DOCTYPE svg PUBLIC "-//W3C//DTD SVG 1.1//EN"
 "http://www.w3.org/Graphics/SVG/1.1/DTD/svg11.dtd">
<!-- Generated by graphviz version 2.43.0 (0)
 -->
<!-- Title: %3 Pages: 1 -->
<svg width="1447pt" height="439pt"
 viewBox="0.00 0.00 1446.50 439.00" xmlns="http://www.w3.org/2000/svg" xmlns:xlink="http://www.w3.org/1999/xlink">
<g id="graph0" class="graph" transform="scale(1 1) rotate(0) translate(4 435)">
<title>%3</title>
<polygon fill="white" stroke="transparent" points="-4,4 -4,-435 1442.5,-435 1442.5,4 -4,4"/>
<!-- root -->
<g id="node1" class="node">
<title>root</title>
<ellipse fill="none" stroke="black" cx="824.57" cy="-413" rx="27" ry="18"/>
</g>
<!-- JQ -->
<g id="node2" class="node">
<title>JQ</title>
<polygon fill="none" stroke="black" points="424.57,-343 388.57,-343 388.57,-307 424.57,-307 424.57,-343"/>
<text text-anchor="middle" x="406.57" y="-321.3" font-family="Times,serif" font-size="14.00">JQ</text>
</g>
<!-- root&#45;&gt;JQ -->
<g id="edge13" class="edge">
<title>root&#45;&gt;JQ</title>
<path fill="none" stroke="black" d="M798.76,-407.1C763.94,-400.45 700.02,-388.13 645.57,-377 569.19,-361.38 479.31,-341.91 434.68,-332.16"/>
<polygon fill="black" stroke="black" points="435.36,-328.73 424.84,-330.01 433.86,-335.56 435.36,-328.73"/>
<text text-anchor="middle" x="662.57" y="-365.8" font-family="Times,serif" font-size="14.00">(1/6)</text>
</g>
<!-- JK -->
<g id="node3" class="node">
<title>JK</title>
<polygon fill="none" stroke="black" points="591.57,-343 555.57,-343 555.57,-307 591.57,-307 591.57,-343"/>
<text text-anchor="middle" x="573.57" y="-321.3" font-family="Times,serif" font-size="14.00">JK</text>
</g>
<!-- root&#45;&gt;JK -->
<g id="edge14" class="edge">
<title>root&#45;&gt;JK</title>
<path fill="none" stroke="black" d="M800.96,-403.91C754.38,-387.95 650.87,-352.48 601.21,-335.47"/>
<polygon fill="black" stroke="black" points="602.34,-332.16 591.75,-332.23 600.07,-338.78 602.34,-332.16"/>
<text text-anchor="middle" x="737.57" y="-365.8" font-family="Times,serif" font-size="14.00">(1/6)</text>
</g>
<!-- QJ -->
<g id="node4" class="node">
<title>QJ</title>
<polygon fill="none" stroke="black" points="810.57,-343 774.57,-343 774.57,-307 810.57,-307 810.57,-343"/>
<text text-anchor="middle" x="792.57" y="-321.3" font-family="Times,serif" font-size="14.00">QJ</text>
</g>
<!-- root&#45;&gt;QJ -->
<g id="edge15" class="edge">
<title>root&#45;&gt;QJ</title>
<path fill="none" stroke="black" d="M814.82,-396.02C811.55,-390.19 808.1,-383.44 805.57,-377 802.61,-369.43 800.13,-360.96 798.17,-353.13"/>
<polygon fill="black" stroke="black" points="801.56,-352.27 795.87,-343.33 794.74,-353.87 801.56,-352.27"/>
<text text-anchor="middle" x="822.57" y="-365.8" font-family="Times,serif" font-size="14.00">(1/6)</text>
</g>
<!-- QK -->
<g id="node5" class="node">
<title>QK</title>
<polygon fill="none" stroke="black" points="884.57,-344 846.57,-344 846.57,-306 884.57,-306 884.57,-344"/>
<text text-anchor="middle" x="865.57" y="-321.3" font-family="Times,serif" font-size="14.00">QK</text>
</g>
<!-- root&#45;&gt;QK -->
<g id="edge16" class="edge">
<title>root&#45;&gt;QK</title>
<path fill="none" stroke="black" d="M832.48,-395.42C838.19,-383.44 846.03,-367 852.64,-353.13"/>
<polygon fill="black" stroke="black" points="855.84,-354.55 856.99,-344.02 849.52,-351.54 855.84,-354.55"/>
<text text-anchor="middle" x="863.57" y="-365.8" font-family="Times,serif" font-size="14.00">(1/6)</text>
</g>
<!-- KJ -->
<g id="node6" class="node">
<title>KJ</title>
<polygon fill="none" stroke="black" points="956.57,-343 920.57,-343 920.57,-307 956.57,-307 956.57,-343"/>
<text text-anchor="middle" x="938.57" y="-321.3" font-family="Times,serif" font-size="14.00">KJ</text>
</g>
<!-- root&#45;&gt;KJ -->
<g id="edge17" class="edge">
<title>root&#45;&gt;KJ</title>
<path fill="none" stroke="black" d="M845.31,-401.44C857.22,-395 872.22,-386.25 884.57,-377 895.22,-369.03 906.05,-359.21 915.19,-350.32"/>
<polygon fill="black" stroke="black" points="917.8,-352.66 922.43,-343.13 912.87,-347.69 917.8,-352.66"/>
<text text-anchor="middle" x="918.57" y="-365.8" font-family="Times,serif" font-size="14.00">(1/6)</text>
</g>
<!-- KQ -->
<g id="node7" class="node">
<title>KQ</title>
<polygon fill="none" stroke="black" points="1030.57,-344 992.57,-344 992.57,-306 1030.57,-306 1030.57,-344"/>
<text text-anchor="middle" x="1011.57" y="-321.3" font-family="Times,serif" font-size="14.00">KQ</text>
</g>
<!-- root&#45;&gt;KQ -->
<g id="edge18" class="edge">
<title>root&#45;&gt;KQ</title>
<path fill="none" stroke="black" d="M850.13,-406.71C874.03,-401.19 910.34,-391.33 939.57,-377 955.37,-369.26 971.48,-358.2 984.45,-348.35"/>
<polygon fill="black" stroke="black" points="986.74,-351.01 992.48,-342.11 982.44,-345.48 986.74,-351.01"/>
<text text-anchor="middle" x="981.57" y="-365.8" font-family="Times,serif" font-size="14.00">(1/6)</text>
</g>
<!-- JQ&#45;&gt;JK -->
<!-- p1 -->
<g id="node8" class="node">
<title>p1</title>
<polygon fill="none" stroke="black" points="156.57,-240 129.57,-213 183.57,-213 156.57,-240"/>
</g>
<!-- JQ&#45;&gt;p1 -->
<g id="edge19" class="edge">
<title>JQ&#45;&gt;p1</title>
<path fill="none" stroke="black" d="M388.29,-319.79C363.95,-313.94 319.75,-302.4 283.57,-288 244.16,-272.31 200.64,-248.52 176.15,-234.49"/>
<polygon fill="black" stroke="black" points="177.87,-231.44 167.46,-229.46 174.36,-237.5 177.87,-231.44"/>
<text text-anchor="middle" x="306.57" y="-276.8" font-family="Times,serif" font-size="14.00">check </text>
<text text-anchor="middle" x="306.57" y="-261.8" font-family="Times,serif" font-size="14.00"> (2/3)</text>
</g>
<!-- p2 -->
<g id="node9" class="node">
<title>p2</title>
<polygon fill="none" stroke="black" points="294.57,-240 267.57,-213 321.57,-213 294.57,-240"/>
</g>
<!-- JQ&#45;&gt;p2 -->
<g id="edge20" class="edge">
<title>JQ&#45;&gt;p2</title>
<path fill="none" stroke="black" d="M388.08,-307.32C366.67,-288.02 331.74,-256.51 311.17,-237.97"/>
<polygon fill="black" stroke="black" points="313.33,-235.2 303.56,-231.11 308.65,-240.4 313.33,-235.2"/>
<text text-anchor="middle" x="383.57" y="-276.8" font-family="Times,serif" font-size="14.00">raise </text>
<text text-anchor="middle" x="383.57" y="-261.8" font-family="Times,serif" font-size="14.00"> (1/3)</text>
</g>
<!-- JK&#45;&gt;QJ -->
<!-- p3 -->
<g id="node10" class="node">
<title>p3</title>
<polygon fill="none" stroke="black" points="466.57,-240 439.57,-213 493.57,-213 466.57,-240"/>
</g>
<!-- JK&#45;&gt;p3 -->
<g id="edge21" class="edge">
<title>JK&#45;&gt;p3</title>
<path fill="none" stroke="black" d="M555.23,-312.27C545.43,-305.64 533.39,-296.92 523.57,-288 507.54,-273.43 491.46,-254.62 480.49,-240.99"/>
<polygon fill="black" stroke="black" points="483.02,-238.54 474.07,-232.87 477.53,-242.89 483.02,-238.54"/>
<text text-anchor="middle" x="546.57" y="-276.8" font-family="Times,serif" font-size="14.00">check </text>
<text text-anchor="middle" x="546.57" y="-261.8" font-family="Times,serif" font-size="14.00"> (2/3)</text>
</g>
<!-- p4 -->
<g id="node11" class="node">
<title>p4</title>
<polygon fill="none" stroke="black" points="573.57,-240 546.57,-213 600.57,-213 573.57,-240"/>
</g>
<!-- JK&#45;&gt;p4 -->
<g id="edge22" class="edge">
<title>JK&#45;&gt;p4</title>
<path fill="none" stroke="black" d="M573.57,-306.87C573.57,-291.41 573.57,-268.42 573.57,-250.41"/>
<polygon fill="black" stroke="black" points="577.07,-250.22 573.57,-240.22 570.07,-250.22 577.07,-250.22"/>
<text text-anchor="middle" x="593.57" y="-276.8" font-family="Times,serif" font-size="14.00">raise </text>
<text text-anchor="middle" x="593.57" y="-261.8" font-family="Times,serif" font-size="14.00"> (1/3)</text>
</g>
<!-- QJ&#45;&gt;QK -->
<!-- p5 -->
<g id="node12" class="node">
<title>p5</title>
<polygon fill="none" stroke="black" points="792.57,-240 765.57,-213 819.57,-213 792.57,-240"/>
</g>
<!-- QJ&#45;&gt;p5 -->
<g id="edge23" class="edge">
<title>QJ&#45;&gt;p5</title>
<path fill="none" stroke="black" d="M792.57,-306.87C792.57,-291.41 792.57,-268.42 792.57,-250.41"/>
<polygon fill="black" stroke="black" points="796.07,-250.22 792.57,-240.22 789.07,-250.22 796.07,-250.22"/>
<text text-anchor="middle" x="815.57" y="-276.8" font-family="Times,serif" font-size="14.00">check </text>
<text text-anchor="middle" x="815.57" y="-261.8" font-family="Times,serif" font-size="14.00"> (1)</text>
</g>
<!-- QK&#45;&gt;KJ -->
<!-- p6 -->
<g id="node13" class="node">
<title>p6</title>
<polygon fill="none" stroke="black" points="919.57,-240 892.57,-213 946.57,-213 919.57,-240"/>
</g>
<!-- QK&#45;&gt;p6 -->
<g id="edge24" class="edge">
<title>QK&#45;&gt;p6</title>
<path fill="none" stroke="black" d="M875.23,-305.94C884.64,-288.34 898.93,-261.62 908.73,-243.29"/>
<polygon fill="black" stroke="black" points="911.89,-244.79 913.52,-234.32 905.72,-241.49 911.89,-244.79"/>
<text text-anchor="middle" x="922.57" y="-276.8" font-family="Times,serif" font-size="14.00">check </text>
<text text-anchor="middle" x="922.57" y="-261.8" font-family="Times,serif" font-size="14.00"> (1)</text>
</g>
<!-- KJ&#45;&gt;KQ -->
<!-- p7 -->
<g id="node14" class="node">
<title>p7</title>
<polygon fill="none" stroke="black" points="1088.57,-240 1061.57,-213 1115.57,-213 1088.57,-240"/>
</g>
<!-- KJ&#45;&gt;p7 -->
<g id="edge25" class="edge">
<title>KJ&#45;&gt;p7</title>
<path fill="none" stroke="black" d="M943.75,-306.97C949.14,-292.01 959,-270.71 974.57,-258 999.86,-237.36 1037.24,-228.86 1062.23,-225.39"/>
<polygon fill="black" stroke="black" points="1062.92,-228.83 1072.43,-224.15 1062.08,-221.88 1062.92,-228.83"/>
<text text-anchor="middle" x="994.57" y="-276.8" font-family="Times,serif" font-size="14.00">raise </text>
<text text-anchor="middle" x="994.57" y="-261.8" font-family="Times,serif" font-size="14.00"> (1)</text>
</g>
<!-- p8 -->
<g id="node15" class="node">
<title>p8</title>
<polygon fill="none" stroke="black" points="1194.57,-240 1167.57,-213 1221.57,-213 1194.57,-240"/>
</g>
<!-- KQ&#45;&gt;p8 -->
<g id="edge26" class="edge">
<title>KQ&#45;&gt;p8</title>
<path fill="none" stroke="black" d="M1030.81,-313.38C1065.71,-294.12 1139.1,-253.62 1174.56,-234.05"/>
<polygon fill="black" stroke="black" points="1176.42,-237.02 1183.49,-229.12 1173.04,-230.89 1176.42,-237.02"/>
<text text-anchor="middle" x="1149.57" y="-276.8" font-family="Times,serif" font-size="14.00">raise </text>
<text text-anchor="middle" x="1149.57" y="-261.8" font-family="Times,serif" font-size="14.00"> (1)</text>
</g>
<!-- p1&#45;&gt;p2 -->
<!-- c1 -->
<g id="node16" class="node">
<title>c1</title>
<polygon fill="none" stroke="black" points="126.57,-138 90.57,-138 90.57,-102 126.57,-102 126.57,-138"/>
</g>
<!-- p1&#45;&gt;c1 -->
<g id="edge28" class="edge">
<title>p1&#45;&gt;c1</title>
<path fill="none" stroke="black" d="M152.65,-212.82C145.86,-198.68 131.66,-169.09 121.2,-147.31"/>
<polygon fill="black" stroke="black" points="124.33,-145.73 116.84,-138.23 118.02,-148.76 124.33,-145.73"/>
<text text-anchor="middle" x="158.57" y="-174.8" font-family="Times,serif" font-size="14.00">bet </text>
<text text-anchor="middle" x="158.57" y="-159.8" font-family="Times,serif" font-size="14.00"> (1/2)</text>
</g>
<!-- n1_1 -->
<g id="node20" class="node">
<title>n1_1</title>
<polygon fill="none" stroke="black" points="27.57,-138 -0.07,-120 27.57,-102 55.22,-120 27.57,-138"/>
<text text-anchor="middle" x="27.57" y="-116.3" font-family="Times,serif" font-size="14.00">&#45;1</text>
</g>
<!-- p1&#45;&gt;n1_1 -->
<g id="edge27" class="edge">
<title>p1&#45;&gt;n1_1</title>
<path fill="none" stroke="black" d="M130.25,-213.8C113.14,-208.2 91.02,-199.14 74.57,-186 59.81,-174.21 47.49,-156.65 39.18,-142.76"/>
<polygon fill="black" stroke="black" points="42.08,-140.79 34.08,-133.84 36,-144.26 42.08,-140.79"/>
<text text-anchor="middle" x="97.57" y="-174.8" font-family="Times,serif" font-size="14.00">check </text>
<text text-anchor="middle" x="97.57" y="-159.8" font-family="Times,serif" font-size="14.00"> (1/2)</text>
</g>
<!-- p2&#45;&gt;p3 -->
<!-- n2_1 -->
<g id="node27" class="node">
<title>n2_1</title>
<polygon fill="none" stroke="black" points="294.57,-138 266.93,-120 294.57,-102 322.22,-120 294.57,-138"/>
<text text-anchor="middle" x="294.57" y="-116.3" font-family="Times,serif" font-size="14.00">&#45;2</text>
</g>
<!-- p2&#45;&gt;n2_1 -->
<g id="edge31" class="edge">
<title>p2&#45;&gt;n2_1</title>
<path fill="none" stroke="black" d="M294.57,-212.82C294.57,-198.93 294.57,-170.15 294.57,-148.49"/>
<polygon fill="black" stroke="black" points="298.07,-148.23 294.57,-138.23 291.07,-148.23 298.07,-148.23"/>
<text text-anchor="middle" x="313.57" y="-174.8" font-family="Times,serif" font-size="14.00">call </text>
<text text-anchor="middle" x="313.57" y="-159.8" font-family="Times,serif" font-size="14.00"> (1/2)</text>
</g>
<!-- p1_1 -->
<g id="node30" class="node">
<title>p1_1</title>
<polygon fill="none" stroke="black" points="196.57,-138 161.72,-120 196.57,-102 231.43,-120 196.57,-138"/>
<text text-anchor="middle" x="196.57" y="-116.3" font-family="Times,serif" font-size="14.00">+1</text>
</g>
<!-- p2&#45;&gt;p1_1 -->
<g id="edge30" class="edge">
<title>p2&#45;&gt;p1_1</title>
<path fill="none" stroke="black" d="M283.8,-212.83C275.06,-206.01 262.59,-195.85 252.57,-186 238.29,-171.95 223.55,-154.71 212.79,-141.52"/>
<polygon fill="black" stroke="black" points="215.33,-139.1 206.33,-133.51 209.88,-143.49 215.33,-139.1"/>
<text text-anchor="middle" x="271.57" y="-174.8" font-family="Times,serif" font-size="14.00">fold </text>
<text text-anchor="middle" x="271.57" y="-159.8" font-family="Times,serif" font-size="14.00"> (1/2)</text>
</g>
<!-- p3&#45;&gt;p4 -->
<!-- c3 -->
<g id="node17" class="node">
<title>c3</title>
<polygon fill="none" stroke="black" points="484.57,-138 448.57,-138 448.57,-102 484.57,-102 484.57,-138"/>
</g>
<!-- p3&#45;&gt;c3 -->
<g id="edge33" class="edge">
<title>p3&#45;&gt;c3</title>
<path fill="none" stroke="black" d="M466.57,-212.82C466.57,-198.93 466.57,-170.15 466.57,-148.49"/>
<polygon fill="black" stroke="black" points="470.07,-148.23 466.57,-138.23 463.07,-148.23 470.07,-148.23"/>
<text text-anchor="middle" x="485.57" y="-174.8" font-family="Times,serif" font-size="14.00">bet </text>
<text text-anchor="middle" x="485.57" y="-159.8" font-family="Times,serif" font-size="14.00"> (1/2)</text>
</g>
<!-- n1_3 -->
<g id="node22" class="node">
<title>n1_3</title>
<polygon fill="none" stroke="black" points="385.57,-138 357.93,-120 385.57,-102 413.22,-120 385.57,-138"/>
<text text-anchor="middle" x="385.57" y="-116.3" font-family="Times,serif" font-size="14.00">&#45;1</text>
</g>
<!-- p3&#45;&gt;n1_3 -->
<g id="edge32" class="edge">
<title>p3&#45;&gt;n1_3</title>
<path fill="none" stroke="black" d="M450.98,-212.93C440.22,-206.73 426.16,-197.32 416.57,-186 406.44,-174.03 398.79,-158.18 393.63,-145.13"/>
<polygon fill="black" stroke="black" points="396.78,-143.55 390.02,-135.39 390.21,-145.98 396.78,-143.55"/>
<text text-anchor="middle" x="439.57" y="-174.8" font-family="Times,serif" font-size="14.00">check </text>
<text text-anchor="middle" x="439.57" y="-159.8" font-family="Times,serif" font-size="14.00"> (1/2)</text>
</g>
<!-- p4&#45;&gt;p5 -->
<!-- n2_3 -->
<g id="node29" class="node">
<title>n2_3</title>
<polygon fill="none" stroke="black" points="652.57,-138 624.93,-120 652.57,-102 680.22,-120 652.57,-138"/>
<text text-anchor="middle" x="652.57" y="-116.3" font-family="Times,serif" font-size="14.00">&#45;2</text>
</g>
<!-- p4&#45;&gt;n2_3 -->
<g id="edge36" class="edge">
<title>p4&#45;&gt;n2_3</title>
<path fill="none" stroke="black" d="M582.68,-212.8C590.04,-205.97 600.48,-195.81 608.57,-186 620.03,-172.13 631.36,-155.29 639.66,-142.22"/>
<polygon fill="black" stroke="black" points="642.8,-143.81 645.12,-133.47 636.86,-140.1 642.8,-143.81"/>
<text text-anchor="middle" x="648.57" y="-174.8" font-family="Times,serif" font-size="14.00">call </text>
<text text-anchor="middle" x="648.57" y="-159.8" font-family="Times,serif" font-size="14.00"> (1/2)</text>
</g>
<!-- p1_5 -->
<g id="node34" class="node">
<title>p1_5</title>
<polygon fill="none" stroke="black" points="554.57,-138 519.72,-120 554.57,-102 589.43,-120 554.57,-138"/>
<text text-anchor="middle" x="554.57" y="-116.3" font-family="Times,serif" font-size="14.00">+1</text>
</g>
<!-- p4&#45;&gt;p1_5 -->
<g id="edge35" class="edge">
<title>p4&#45;&gt;p1_5</title>
<path fill="none" stroke="black" d="M572.02,-212.82C569.31,-198.55 563.61,-168.55 559.46,-146.71"/>
<polygon fill="black" stroke="black" points="562.87,-145.92 557.57,-136.75 556,-147.23 562.87,-145.92"/>
<text text-anchor="middle" x="585.57" y="-174.8" font-family="Times,serif" font-size="14.00">fold </text>
<text text-anchor="middle" x="585.57" y="-159.8" font-family="Times,serif" font-size="14.00"> (1/2)</text>
</g>
<!-- p5&#45;&gt;p6 -->
<!-- c4 -->
<g id="node18" class="node">
<title>c4</title>
<polygon fill="none" stroke="black" points="856.57,-138 820.57,-138 820.57,-102 856.57,-102 856.57,-138"/>
</g>
<!-- p5&#45;&gt;c4 -->
<g id="edge38" class="edge">
<title>p5&#45;&gt;c4</title>
<path fill="none" stroke="black" d="M796.34,-212.82C802.81,-198.74 816.33,-169.36 826.34,-147.61"/>
<polygon fill="black" stroke="black" points="829.65,-148.78 830.65,-138.23 823.29,-145.85 829.65,-148.78"/>
<text text-anchor="middle" x="840.57" y="-174.8" font-family="Times,serif" font-size="14.00">bet </text>
<text text-anchor="middle" x="840.57" y="-159.8" font-family="Times,serif" font-size="14.00"> (1/2)</text>
</g>
<!-- p1_2 -->
<g id="node31" class="node">
<title>p1_2</title>
<polygon fill="none" stroke="black" points="750.57,-138 715.72,-120 750.57,-102 785.43,-120 750.57,-138"/>
<text text-anchor="middle" x="750.57" y="-116.3" font-family="Times,serif" font-size="14.00">+1</text>
</g>
<!-- p5&#45;&gt;p1_2 -->
<g id="edge37" class="edge">
<title>p5&#45;&gt;p1_2</title>
<path fill="none" stroke="black" d="M782.86,-212.82C775.8,-206.3 766.62,-196.54 761.57,-186 755.96,-174.26 753.16,-160.13 751.79,-148.04"/>
<polygon fill="black" stroke="black" points="755.27,-147.72 750.91,-138.06 748.3,-148.33 755.27,-147.72"/>
<text text-anchor="middle" x="784.57" y="-174.8" font-family="Times,serif" font-size="14.00">check </text>
<text text-anchor="middle" x="784.57" y="-159.8" font-family="Times,serif" font-size="14.00"> (1/2)</text>
</g>
<!-- p6&#45;&gt;p7 -->
<!-- c5 -->
<g id="node19" class="node">
<title>c5</title>
<polygon fill="none" stroke="black" points="1018.57,-138 982.57,-138 982.57,-102 1018.57,-102 1018.57,-138"/>
</g>
<!-- p6&#45;&gt;c5 -->
<g id="edge42" class="edge">
<title>p6&#45;&gt;c5</title>
<path fill="none" stroke="black" d="M935.17,-212.93C945.93,-206.73 959.99,-197.32 969.57,-186 979.07,-174.78 986.39,-160.16 991.52,-147.62"/>
<polygon fill="black" stroke="black" points="994.85,-148.71 995.16,-138.12 988.31,-146.2 994.85,-148.71"/>
<text text-anchor="middle" x="1005.57" y="-174.8" font-family="Times,serif" font-size="14.00">bet </text>
<text text-anchor="middle" x="1005.57" y="-159.8" font-family="Times,serif" font-size="14.00"> (1/2)</text>
</g>
<!-- n1_6 -->
<g id="node25" class="node">
<title>n1_6</title>
<polygon fill="none" stroke="black" points="919.57,-138 891.93,-120 919.57,-102 947.22,-120 919.57,-138"/>
<text text-anchor="middle" x="919.57" y="-116.3" font-family="Times,serif" font-size="14.00">&#45;1</text>
</g>
<!-- p6&#45;&gt;n1_6 -->
<g id="edge41" class="edge">
<title>p6&#45;&gt;n1_6</title>
<path fill="none" stroke="black" d="M919.57,-212.82C919.57,-198.93 919.57,-170.15 919.57,-148.49"/>
<polygon fill="black" stroke="black" points="923.07,-148.23 919.57,-138.23 916.07,-148.23 923.07,-148.23"/>
<text text-anchor="middle" x="942.57" y="-174.8" font-family="Times,serif" font-size="14.00">check </text>
<text text-anchor="middle" x="942.57" y="-159.8" font-family="Times,serif" font-size="14.00"> (1/2)</text>
</g>
<!-- p7&#45;&gt;p8 -->
<!-- p1_3 -->
<g id="node32" class="node">
<title>p1_3</title>
<polygon fill="none" stroke="black" points="1088.57,-138 1053.72,-120 1088.57,-102 1123.43,-120 1088.57,-138"/>
<text text-anchor="middle" x="1088.57" y="-116.3" font-family="Times,serif" font-size="14.00">+1</text>
</g>
<!-- p7&#45;&gt;p1_3 -->
<g id="edge45" class="edge">
<title>p7&#45;&gt;p1_3</title>
<path fill="none" stroke="black" d="M1088.57,-212.82C1088.57,-198.93 1088.57,-170.15 1088.57,-148.49"/>
<polygon fill="black" stroke="black" points="1092.07,-148.23 1088.57,-138.23 1085.07,-148.23 1092.07,-148.23"/>
<text text-anchor="middle" x="1107.57" y="-174.8" font-family="Times,serif" font-size="14.00">fold </text>
<text text-anchor="middle" x="1107.57" y="-159.8" font-family="Times,serif" font-size="14.00"> (1/2)</text>
</g>
<!-- p2_2 -->
<g id="node36" class="node">
<title>p2_2</title>
<polygon fill="none" stroke="black" points="1193.57,-138 1158.72,-120 1193.57,-102 1228.43,-120 1193.57,-138"/>
<text text-anchor="middle" x="1193.57" y="-116.3" font-family="Times,serif" font-size="14.00">+2</text>
</g>
<!-- p7&#45;&gt;p2_2 -->
<g id="edge46" class="edge">
<title>p7&#45;&gt;p2_2</title>
<path fill="none" stroke="black" d="M1098.85,-212.95C1107.51,-206.03 1120.14,-195.68 1130.57,-186 1146.41,-171.31 1163.41,-153.65 1175.75,-140.45"/>
<polygon fill="black" stroke="black" points="1178.54,-142.58 1182.78,-132.87 1173.41,-137.82 1178.54,-142.58"/>
<text text-anchor="middle" x="1179.57" y="-174.8" font-family="Times,serif" font-size="14.00">call </text>
<text text-anchor="middle" x="1179.57" y="-159.8" font-family="Times,serif" font-size="14.00"> (1/2)</text>
</g>
<!-- p1_4 -->
<g id="node33" class="node">
<title>p1_4</title>
<polygon fill="none" stroke="black" points="1298.57,-138 1263.72,-120 1298.57,-102 1333.43,-120 1298.57,-138"/>
<text text-anchor="middle" x="1298.57" y="-116.3" font-family="Times,serif" font-size="14.00">+1</text>
</g>
<!-- p8&#45;&gt;p1_4 -->
<g id="edge47" class="edge">
<title>p8&#45;&gt;p1_4</title>
<path fill="none" stroke="black" d="M1203.09,-212.82C1219.66,-196.88 1256.65,-161.32 1279.41,-139.42"/>
<polygon fill="black" stroke="black" points="1282.03,-141.76 1286.82,-132.31 1277.18,-136.71 1282.03,-141.76"/>
<text text-anchor="middle" x="1280.57" y="-174.8" font-family="Times,serif" font-size="14.00">fold </text>
<text text-anchor="middle" x="1280.57" y="-159.8" font-family="Times,serif" font-size="14.00"> (1/2)</text>
</g>
<!-- p2_3 -->
<g id="node37" class="node">
<title>p2_3</title>
<polygon fill="none" stroke="black" points="1403.57,-138 1368.72,-120 1403.57,-102 1438.43,-120 1403.57,-138"/>
<text text-anchor="middle" x="1403.57" y="-116.3" font-family="Times,serif" font-size="14.00">+2</text>
</g>
<!-- p8&#45;&gt;p2_3 -->
<g id="edge48" class="edge">
<title>p8&#45;&gt;p2_3</title>
<path fill="none" stroke="black" d="M1219.97,-214.9C1242.54,-209 1276.11,-199.05 1303.57,-186 1332.28,-172.36 1362.51,-151.71 1382.12,-137.36"/>
<polygon fill="black" stroke="black" points="1384.4,-140.03 1390.34,-131.26 1380.23,-134.41 1384.4,-140.03"/>
<text text-anchor="middle" x="1372.57" y="-174.8" font-family="Times,serif" font-size="14.00">call </text>
<text text-anchor="middle" x="1372.57" y="-159.8" font-family="Times,serif" font-size="14.00"> (1/2)</text>
</g>
<!-- n1_2 -->
<g id="node21" class="node">
<title>n1_2</title>
<polygon fill="none" stroke="black" points="108.57,-36 80.93,-18 108.57,0 136.22,-18 108.57,-36"/>
<text text-anchor="middle" x="108.57" y="-14.3" font-family="Times,serif" font-size="14.00">&#45;1</text>
</g>
<!-- c1&#45;&gt;n1_2 -->
<g id="edge29" class="edge">
<title>c1&#45;&gt;n1_2</title>
<path fill="none" stroke="black" d="M108.57,-101.58C108.57,-86.38 108.57,-64.07 108.57,-46.46"/>
<polygon fill="black" stroke="black" points="112.07,-46.22 108.57,-36.22 105.07,-46.22 112.07,-46.22"/>
<text text-anchor="middle" x="124.57" y="-72.8" font-family="Times,serif" font-size="14.00">fold </text>
<text text-anchor="middle" x="124.57" y="-57.8" font-family="Times,serif" font-size="14.00"> (1)</text>
</g>
<!-- c1&#45;&gt;p1_1 -->
<!-- n1_4 -->
<g id="node23" class="node">
<title>n1_4</title>
<polygon fill="none" stroke="black" points="466.57,-36 438.93,-18 466.57,0 494.22,-18 466.57,-36"/>
<text text-anchor="middle" x="466.57" y="-14.3" font-family="Times,serif" font-size="14.00">&#45;1</text>
</g>
<!-- c3&#45;&gt;n1_4 -->
<g id="edge34" class="edge">
<title>c3&#45;&gt;n1_4</title>
<path fill="none" stroke="black" d="M466.57,-101.58C466.57,-86.38 466.57,-64.07 466.57,-46.46"/>
<polygon fill="black" stroke="black" points="470.07,-46.22 466.57,-36.22 463.07,-46.22 470.07,-46.22"/>
<text text-anchor="middle" x="482.57" y="-72.8" font-family="Times,serif" font-size="14.00">fold </text>
<text text-anchor="middle" x="482.57" y="-57.8" font-family="Times,serif" font-size="14.00"> (1)</text>
</g>
<!-- c3&#45;&gt;p1_5 -->
<!-- n1_5 -->
<g id="node24" class="node">
<title>n1_5</title>
<polygon fill="none" stroke="black" points="761.57,-36 733.93,-18 761.57,0 789.22,-18 761.57,-36"/>
<text text-anchor="middle" x="761.57" y="-14.3" font-family="Times,serif" font-size="14.00">&#45;1</text>
</g>
<!-- c4&#45;&gt;n1_5 -->
<g id="edge39" class="edge">
<title>c4&#45;&gt;n1_5</title>
<path fill="none" stroke="black" d="M820.55,-105.94C812.88,-99.83 804.21,-92.12 797.57,-84 787.1,-71.18 778.09,-54.89 771.7,-41.82"/>
<polygon fill="black" stroke="black" points="774.77,-40.12 767.34,-32.57 768.43,-43.1 774.77,-40.12"/>
<text text-anchor="middle" x="816.57" y="-72.8" font-family="Times,serif" font-size="14.00">fold </text>
<text text-anchor="middle" x="816.57" y="-57.8" font-family="Times,serif" font-size="14.00"> (1/3)</text>
</g>
<!-- c4&#45;&gt;n1_6 -->
<!-- p2_1 -->
<g id="node35" class="node">
<title>p2_1</title>
<polygon fill="none" stroke="black" points="842.57,-36 807.72,-18 842.57,0 877.43,-18 842.57,-36"/>
<text text-anchor="middle" x="842.57" y="-14.3" font-family="Times,serif" font-size="14.00">+2</text>
</g>
<!-- c4&#45;&gt;p2_1 -->
<g id="edge40" class="edge">
<title>c4&#45;&gt;p2_1</title>
<path fill="none" stroke="black" d="M839.27,-101.58C839.88,-86.29 840.78,-63.79 841.49,-46.14"/>
<polygon fill="black" stroke="black" points="845,-46.02 841.9,-35.89 838,-45.74 845,-46.02"/>
<text text-anchor="middle" x="859.57" y="-72.8" font-family="Times,serif" font-size="14.00">call </text>
<text text-anchor="middle" x="859.57" y="-57.8" font-family="Times,serif" font-size="14.00"> (2/3)</text>
</g>
<!-- n1_7 -->
<g id="node26" class="node">
<title>n1_7</title>
<polygon fill="none" stroke="black" points="963.57,-36 935.93,-18 963.57,0 991.22,-18 963.57,-36"/>
<text text-anchor="middle" x="963.57" y="-14.3" font-family="Times,serif" font-size="14.00">&#45;1</text>
</g>
<!-- c5&#45;&gt;n1_7 -->
<g id="edge43" class="edge">
<title>c5&#45;&gt;n1_7</title>
<path fill="none" stroke="black" d="M982.38,-101.92C977.79,-96.62 973.37,-90.46 970.57,-84 965.39,-71.99 963.45,-57.62 962.89,-45.45"/>
<polygon fill="black" stroke="black" points="966.39,-45.37 962.7,-35.44 959.39,-45.5 966.39,-45.37"/>
<text text-anchor="middle" x="989.57" y="-72.8" font-family="Times,serif" font-size="14.00">fold </text>
<text text-anchor="middle" x="989.57" y="-57.8" font-family="Times,serif" font-size="14.00"> (1/3)</text>
</g>
<!-- n2_2 -->
<g id="node28" class="node">
<title>n2_2</title>
<polygon fill="none" stroke="black" points="1036.57,-36 1008.93,-18 1036.57,0 1064.22,-18 1036.57,-36"/>
<text text-anchor="middle" x="1036.57" y="-14.3" font-family="Times,serif" font-size="14.00">&#45;2</text>
</g>
<!-- c5&#45;&gt;n2_2 -->
<g id="edge44" class="edge">
<title>c5&#45;&gt;n2_2</title>
<path fill="none" stroke="black" d="M1006.85,-101.58C1012.73,-85.23 1021.59,-60.63 1028.1,-42.54"/>
<polygon fill="black" stroke="black" points="1031.44,-43.59 1031.54,-33 1024.86,-41.22 1031.44,-43.59"/>
<text text-anchor="middle" x="1042.57" y="-72.8" font-family="Times,serif" font-size="14.00">call </text>
<text text-anchor="middle" x="1042.57" y="-57.8" font-family="Times,serif" font-size="14.00"> (2/3)</text>
</g>
<!-- c5&#45;&gt;p1_3 -->
<!-- n1_1&#45;&gt;c1 -->
<!-- n1_3&#45;&gt;c3 -->
<!-- n1_6&#45;&gt;c5 -->
<!-- n2_1&#45;&gt;n1_3 -->
<!-- n2_3&#45;&gt;p1_2 -->
<!-- p1_1&#45;&gt;n2_1 -->
<!-- p1_2&#45;&gt;c4 -->
<!-- p1_3&#45;&gt;p2_2 -->
<!-- p1_4&#45;&gt;p2_3 -->
<!-- p1_5&#45;&gt;n2_3 -->
<!-- p2_2&#45;&gt;p1_4 -->
</g>
</svg>
